<?xml version="1.0" standalone="no"?><!DOCTYPE svg PUBLIC "-//W3C//DTD SVG 1.1//EN" "http://www.w3.org/Graphics/SVG/1.1/DTD/svg11.dtd"><svg t="1563201399386" class="icon" viewBox="0 0 4173 1024" version="1.1" xmlns="http://www.w3.org/2000/svg" p-id="671" xmlns:xlink="http://www.w3.org/1999/xlink" width="521.625" height="128"><defs><style type="text/css"></style></defs><path d="M818.67872866 517.91424647c22.42551263 1.05661728 44.8983386 0.06308196 67.13460721-3.01214691a233.5281319 233.5281319 0 0 1 65.11599562 3.81643821l15.8334849 2.34979007c5.0622995 0.67812738 11.52816521 1.23009079 13.12097539 1.65589216 5.6773449 0.86737136 11.46508322 0.48888335 17.00049372-0.97776483a86.26410597 86.26410597 0 0 1 24.09717718-2.47595397h8.01136445c0.55196343 0 0.55196343 0 0 0.93045525v1.54549872l-2.28670808 12.3797661-2.46018347 11.76472067c-1.10392877 3.75335626-2.16054603 7.33323707-3.0279174 10.89734933-0.78852082 3.39063682-1.46664819 6.78127365-1.90821818 10.29807251-0.67812738 3.62719231-1.10392877 6.15045774-1.7820561 11.57547668A379.68822911 379.68822911 0 0 1 968.92336051 720.23275103a302.5236458 302.5236458 0 0 1-107.86955678 109.0365675 445.35618816 445.35618816 0 0 1-130.91011865 49.09326674 390.75905193 390.75905193 0 0 1-133.30721822 5.17269103 380.53983188 380.53983188 0 0 1-123.81343702-38.00667149 345.71878077 345.71878077 0 0 1-99.79511229-79.84555177 457.12090883 457.12090883 0 0 1-77.5115322-129.60117345 466.40967745 466.40967745 0 0 1-30.90998993-145.87623023 171.92893702 171.92893702 0 0 1 0-29.88491552l0.97776482-16.93741174 3.01214691-17.67862296 2.96483541-18.41983039 5.109611-18.48291239c1.78205613-6.22931024 2.96483542-12.69517402 5.17269294-18.84563367l6.78127365-18.4198304c17.93094895-49.47175475 45.9549559-92.47764572 59.45441932-122.53603286a627.39395372 627.39395372 0 0 0-67.33962174 108.97348557 437.40790567 437.40790567 0 0 0-36.90274274 123.02491619 387.82575746 387.82575746 0 0 1 108.0588027-257.75147114 434.19074237 434.19074237 0 0 1 255.27551715-128.98612806 443.10102106 443.10102106 0 0 0-377.07034258 333.08668681 443.08525057 443.08525057 0 0 0-12.56901008 133.79610159 440.34120014 440.34120014 0 0 0 27.17240418 134.47422898 509.22632249 509.22632249 0 0 0 66.77188779 124.44425291 514.87212637 514.87212637 0 0 0 102.99650321 102.99650321c-50.32335756-29.80606306-94.62241936-68.8062699-130.46854482-115.01354989A456.82127138 456.82127138 0 0 1 247.42741182 281.86285101 466.6620034 466.6620034 0 0 1 511.70782874 69.08856905 515.01406082 515.01406082 0 0 1 678.1013534 45.11755771a550.38707535 550.38707535 0 0 1 163.05020126 29.14370428 935.27953646 935.27953646 0 0 1 94.00737394 38.19591744c-100.83595907-55.19641113-216.65380027-82.30573522-330.9261427-68.69587648a488.61440507 488.61440507 0 0 0-306.48201845 151.85321258 468.45983004 468.45983004 0 0 0-84.87631025 509.39979601 476.14001603 476.14001603 0 0 0 103.54846853 149.077623c174.89377249 168.23866277 447.73751916 179.64066404 636.05190451 26.66775036a496.51537605 496.51537605 0 0 0 129.49078189-146.72783111c8.50024779-14.47723013 15.5811589-30.07415952 23.22980395-45.16643508 7.63287453-15.09227555 12.50593002-31.6038878 18.59330583-47.43737264 2.83867341-7.99559393 5.235773-16.1962043 7.20707313-24.44412614l3.51680074-13.43638337c1.6085807-6.46586571 3.39063682-12.7424855 4.74689156-19.27143319 4.00568224-26.36811476 5.78773835-52.37351014 8.50024782-78.61545903 2.71250947-26.24195083 2.94906492-52.61006561 4.36840163-78.85201646l0.44156998-9.8565025c0-2.88598297 1.90821817-8.01136445-2.77558952-6.78127369l-19.22412172-1.10392873-38.38516142-2.03438212c-24.75953407-2.0343821-53.035867-0.80429131-79.82978315-0.67812733l-38.13283356 0.55196532-21.81046914 0.67812735c-103.05958519 3.45371881-286.87940684 5.74042685-326.13193965 53.35127306 33.08630646 1.6085807 69.62632978-4.17915765 101.403693-0.91468284-12.99481149 5.10961098-26.36811476 9.28876669-39.97797167 12.55324148 13.73602081 0.80429131 27.53512357 0.31540795 41.1449824-1.46664818-9.24145713 1.16701072-17.97826043 4.73112106-25.43766145 10.34538589 16.25928628 1.23009079 39.36292626-5.72465637 52.12118416-8.43716584 7.44363054-1.78205613 42.43815514-13.12097542 51.86885628-11.21275725-25.5007415 9.05221121-57.97200253 17.615541-78.78893445 28.57597037 8.50024779 0 17.67862294 0 26.24195082 0.67812739-10.59771187 4.25800819-31.47772576 6.04006431-36.96582667 11.7174092 23.04055994-1.24586128 42.1385177-4.06876419 64.98983362-4.06876419 17.615541 0.85160089 35.24685058 0.29963744 52.79930959-1.67166267-21.13233985 4.32109018-49.53483673 7.33323707-64.13823081 15.3446034 10.04574653 1.4193367 20.15457503 1.4193367 30.184553 0a4.69958009 4.69958009 0 0 0-2.2078575 2.64942751c4.49456557 0 10.345384 0.97776482 15.02919547 0.67812735 0 1.23009079 1.16701072 2.52326546 0 3.87951829v-2.77558953m-26.92008013-89.74936574a554.73970651 554.73970651 0 0 1 72.93811608 1.16701072" fill="#ffffff" p-id="672"></path><path d="M1637.99849142 155.87309936h-201.07264325c-28.59174086 0-48.85670935 12.56901198-60.87375604 37.64395212-8.12175789 15.77040292-12.25360404 34.6160347-12.25360403 56.55266584v236.55604934c0 21.93663117 4.13184617 40.84534493 12.25360403 56.74191174 12.01704668 24.94877808 32.28201514 37.45470809 60.87375604 37.45470811h102.12913184V368.095416h-92.03607383v-15.81771437h187.39970251v244.55164327H1412.04015207c-43.06897102 0-78.00041557-14.47723013-104.79432985-43.47900193-26.4942768-29.3329502-39.72564566-67.4027037-39.72564566-114.28811293v-141.42897614c0-46.88540924 13.23136886-84.95516273 39.72564566-114.2723424 26.79391424-28.89137833 61.72535882-43.3055265 104.79432985-43.30552651h225.95833935z m381.75415218 294.29149449h-239.82052411v36.95005614c0 22.6778405 6.15045774 42.62739914 18.48291425 59.8802207 16.1962043 22.97747793 40.21452905 34.50564315 72.07074279 34.50564316h149.26686707v15.83348488h-185.8542038c-95.9155921 0-143.90493008-42.87972704-143.90493007-128.7022611v-61.28378883c0-85.75945212 47.98933799-128.68649061 143.90493007-128.6864906h41.82310975c96.04175604 0 144.03109405 42.92703847 144.03109405 128.6864906zM1854.46304575 292.39748089c-26.79391424 0-46.69616333 11.14967529-59.69097669 33.38594391-9.9195845 16.87433166-14.83994958 37.88050949-14.83994957 62.95544959v45.59223457h149.75575041v-45.59223457c0-24.6333701-5.29885497-45.63954796-15.89656685-62.95544959-13.37330139-22.23626861-33.14938844-33.38594388-59.3282573-33.38594391z m532.5034379 157.76711296h-239.69436017v36.95005614c0 22.6778405 6.15045774 42.62739914 18.48291238 59.8802207 16.25928628 22.97747793 40.21452905 34.50564315 71.94458074 34.50564316h149.26686705v15.83348488h-185.72803983c-96.04175604 0-144.03109405-42.87972704-144.03109213-128.7022611v-61.28378883c0-85.75945212 47.98933799-128.68649061 144.03109213-128.6864906h41.88619171c95.9155921 0 143.84184812 42.92703847 143.84184812 128.6864906zM2221.86613174 292.39748089c-26.85699625 0-46.82232726 11.14967529-59.88022071 33.38594391-9.79342058 16.87433166-14.71378562 37.88050949-14.71378755 62.95544959v45.59223457h149.75575041v-45.59223457c0-24.6333701-5.235773-45.63954796-15.83348487-62.95544959-13.43638336-22.23626861-33.21246847-33.38594388-59.32825728-33.38594391z m402.82341007-14.85572006h104.7943298l-114.27234246 122.77258836 108.42152405 198.48629584h-89.95438025l-73.04850952-139.15803855-36.96582472 39.74141615v99.4166224h-90.12785377V137.27979355h90.12785377v249.80318866z m497.9977947 320.28111936h-98.92773901l-96.78296537-211.24455182h-61.97768479v209.57288916h-90.04900321V140.05538499h206.48189167c40.23029953 0 73.00119613 10.15613998 98.43885568 30.54727049 26.80968477 21.2585038 40.23029953 49.70831023 40.23029953 85.31788214 0 69.48439727-33.02322449 111.26019552-98.92773903 125.42201773z m-257.68838917-441.94978083v214.87174411h53.47743699c32.02968918 0 58.16124658-10.02997605 78.30005301-30.12146909 20.8169319-20.8169319 31.22539788-48.1628115 31.22539787-82.05340928 0-31.05192437-10.89734931-56.30033989-32.83397857-75.71370557-20.8169319-17.97826043-46.38075538-26.98316017-76.69147231-26.98316017z m406.95525624 123.2772422h114.46158832c29.9322251 0 54.26595778 10.09305802 72.93811416 30.24763304 18.41983039 20.07572257 27.59820557 46.50691932 27.59820559 79.34089979v98.3757756c0 32.83398047-9.17837518 59.32825729-27.59820559 79.46706185-18.67215827 20.15457503-43.00588906 30.24763305-72.93811416 30.24763306h-114.46158832c-29.9322251 0-54.09248237-10.09305802-72.44923274-30.24763306-18.71946785-20.13880454-28.08708894-46.63308326-28.08708699-79.46706185v-98.3757756c0-32.83398047 9.36761917-59.26517533 28.08708699-79.34089979 18.35675033-20.15457503 42.51700758-30.24763305 72.44923274-30.24763304z m124.44425289 238.71659347V358.00235797c0-16.57469422-4.74689156-30.73651642-14.24067468-42.39084363-11.63855675-13.73602081-27.89784302-20.56460593-48.71477491-20.56460597h-7.33323707c-20.83270241 0-37.09198868 6.82858513-48.73054734 20.56460597-9.60417467 11.65432725-14.41414819 25.81614944-14.41414816 42.39084363v159.86457706c0 15.15535751 4.24223771 28.5759704 12.7424855 40.21452899 11.3389193 15.15535751 28.1659395 22.74092246 50.40221 22.74092249h7.33323707c21.92086068 0 38.49555488-7.58556306 49.70831024-22.74092249 8.81565573-11.63855675 13.24713935-25.05917154 13.24713935-40.21452899z m137.18673844 80.93371V137.27979355h89.87552776v461.52085148z m463.61831548-148.63605118h-239.82052218v36.95005614c0 22.6778405 6.16622826 42.62739914 18.48291237 59.8802207 16.21197478 22.97747793 40.23029953 34.50564315 72.08651326 34.50564316h149.25109655v15.83348488h-185.85420375c-95.9155921 0-143.90493008-42.87972704-143.90492816-128.7022611v-61.28378883c0-85.75945212 47.98933799-128.68649061 143.90492816-128.6864906h41.83888023c96.02598555 0 144.01532353 42.92703847 144.01532352 128.6864906zM3832.11892897 292.39748089c-26.85699625 0-46.7592453 11.14967529-59.88022069 33.38594391-9.9195845 16.87433166-14.85572007 37.88050949-14.85572007 62.95544959v45.59223457h149.75574851v-45.59223457c0-24.6333701-5.28308448-45.63954796-15.88079635-62.95544959-13.37330139-22.23626861-33.08630646-33.38594388-59.1390114-33.38594391zM1267.52017656 794.08554991h931.87313109v16.32236633h-931.87313109zM3065.40923181 794.08554991h931.81004909v16.32236633h-931.81004909zM2408.65078691 729.34804421c-2.0343821 7.20707505-6.6551097 23.04055994-13.86218283 47.54776611l26.79391426-0.78852081c-6.6551097 32.26624466-15.5811589 57.53043067-26.79391426 75.82409902a103.61154862 103.61154862 0 0 0 37.58087014 19.28720367 86.6110549 86.6110549 0 0 0-13.86218477 16.07004037 222.34691564 222.34691564 0 0 1-33.70135184-23.71868728 342.21775051 342.21775051 0 0 1-38.2589975 26.80968666c-4.11607566-5.12538146-9.73033859-9.49378309-16.81124968-13.05789346a118.65651458 118.65651458 0 0 0 45.89187202-24.52297858c-8.68949182-14.28798613-15.8334849-32.47126106-21.36889535-54.45520181-1.54549873 32.70781652-14.11451071 61.28378692-37.64395209 85.8067636a58.0981665 58.0981665 0 0 0-16.8112497-10.59770993c16.87433166-11.76472069 27.83476106-26.60467024 32.83397858-44.47253726 6.21353973-18.41983039 8.79988528-47.05888273 7.69595648-85.86984555-5.10961098 0-9.98266457 0.23655547-14.54031209 0.67812736h-4.62072763v-15.21843948c11.27583922 0.42580139 20.75384995 0.67812738 28.46557883 0.67812737h20.62768602c8.13752835 0 20.3911305-0.50465385 36.77658072-1.48241867 1.54549873 0 2.0343821 0.48888335 1.60858069 1.48241867z m-20.75384992 13.86218475h-31.3673323c-0.55196343 2.08169355-1.10392877 12.25360404-1.65589218 30.61035246a552.98919137 552.98919137 0 0 0-0.61504541 21.55814126l16.8112497-2.46018348c0.55196343 0.55196343 0.80429131 1.84513808 0.8042913 3.94260024-0.55196343 2.52326546-0.55196343 5.29885497 0 8.31100378a139.25266151 139.25266151 0 0 0 12.93172951 36.16153345c5.6773449-9.73033859 11.82780267-27.09355363 18.48291237-52.16849374l-28.46557693 0.78852084c4.57341613-13.79910276 8.94181778-29.38026169 13.07366394-46.74347481z m-106.57638595-26.13155929c12.86864946 0.56773393 19.77608513 1.86090667 20.75385184 3.87952018 0 0.99353531-0.23655547 2.53903405-0.80429128 4.62072761a25.484971 25.484971 0 0 0-2.27093759 9.98266457v21.38466774c8.68949182 0 15.8334849-0.50465385 21.36889536-1.48241868v16.07004227h-3.75335436a214.66672963 214.66672963 0 0 0-18.29366837-0.66235688v29.06485184l11.44931274-6.21353782c6.10314628 5.66157442 11.9539666 13.86218476 17.63131151 24.57028816l-13.07366583 8.50024781c-5.10961098-10.28230202-10.47154791-18.23058639-16.00695842-23.8921608v55.25949309c0 9.17837518 0.48888335 19.33451515 1.48241867 30.54727049h-19.16104163c0.97776482-10.66079194 1.48241867-20.8169319 1.48241868-30.54727049v-62.1038487c-4.00568224 15.34460153-11.46508322 32.21893317-22.2520391 50.63876545l-11.44931276-13.86218474c12.7424855-12.7424855 23.71868725-33.44902588 32.89706054-61.96191429-11.65432725 0-20.09149308 0.1734735-25.20110402 0.66235688v-15.39191492s8.94181778 0.25232596 26.79391614 0.80429133v-18.29366836c0-5.6773449-0.48888335-12.88441995-1.59281212-21.57391174z m244.56741565 0.80429128l19.14526928-1.48241866c0.56773393 3.64296279 1.54549873 7.88520242 3.09099936 12.94750192 0.97776482 3.13831085 1.78205613 5.47233039 2.27093756 7.01782914h28.33941491c10.78695588 0 22.74092246-0.55196343 35.90920747-1.6558922 0.56773393 0 0.86737136 0.55196343 0.86737324 1.6558922-0.97776482 12.75825601-0.97776482 23.40327935 0 32.02968915h-19.94956055c1.10392877-6.52894767 1.59281022-13.12097542 1.59281023-19.77608509h-120.31240677c0 8.62640985 0.25232596 15.21843949 0.67812738 19.77608509h-19.16103975c2.09746405-15.77040292 2.34979003-26.73083419 0.80429133-32.83398047 0-0.55196343 0.48888335-0.85160089 1.48241677-0.85160088 8.75257378 1.10392877 18.71946785 1.65589217 29.9322251 1.6558922h41.3342283c-0.42580139-4.13184617-2.3971015-10.28230202-6.02429386-18.4829124z m-16.14889471 34.50564127c12.25360404 3.07522889 18.41983039 5.36193693 18.41983229 6.82858511a17.03203467 17.03203467 0 0 1-3.07522886 2.34979005c-2.52326546 2.0343821-5.0622995 4.30531967-7.69595652 6.82858512 35.78304542 0 59.80137013-0.48888335 72.13382477-1.46664815 0.42580139 0 0.61504541 0.29963744 0.61504541 0.78852079v0.67812736c-6.52894767 12.33245459-18.97179574 25.13802206-37.39162612 38.44824342 22.97747793 8.12175789 47.24812865 12.25360404 72.74887014 12.25360212a7.44363054 7.44363054 0 0 0-1.48241866 2.28671001c-4.62072761 7.20707505-7.14399308 12.50593002-7.69595652 16.00695834a233.43350894 233.43350894 0 0 1-23.71868536-3.75335622c-0.55196343 3.07522889-0.80429131 10.96042938-0.8042913 23.71868728 0 5.66157442 0.25232596 13.60985877 0.8042913 23.84484934v8.37408383h-17.67862297c0-2.52326546 0.25232596-6.04006431 0.67812737-10.66079193h-74.23128884c0 3.07522889 0.25232596 5.85082031 0.67812735 8.37408388h-17.50514752c0.99353531-5.17269295 1.48241867-12.80556747 1.48241863-23.0878695 0-13.18405739-0.48888335-23.35596785-1.48241863-30.5630429-10.21922197 2.52326546-18.23058639 4.30531967-23.89216079 5.42501892-1.90821817-5.17269295-5.72465637-9.98266457-11.40200127-14.60339216 28.08708894-3.01214691 52.37351014-8.62640985 72.74887014-16.81125162-4.05299369-3.15408133-11.44931274-10.10882852-22.23626859-20.76962042-1.97130013 2.09746405-6.0873758 5.6773449-12.25360408 10.78695585l-5.23577301 5.23577493-14.72955611-9.98266647c17.99403091-11.21275724 32.04545966-24.69645211 42.20159775-40.52993698z m54.39212172 27.66128752h-53.58783041c8.18483985 7.56979445 17.615541 14.22490416 28.27633294 19.88647858a138.93725354 138.93725354 0 0 0 25.31149747-19.88647858z m-26.79391427 34.48987269a409.4469807 409.4469807 0 0 1-49.83447608 18.29366834c6.6551097 0.55196343 12.80556747 0.80429131 18.4829143 0.8042894h64.37478629c7.08091114 0 13.98834678-0.25232596 20.62768599-0.8042894-22.4728241-5.53541235-40.34069106-11.70163871-53.6509105-18.29366834z m38.25899752 30.56304098h-74.23128884v23.82908072h74.23128884z m128.00836323-130.97319868c14.28798613 4.00568224 21.19542185 6.59202775 20.75385184 7.69595649 0 0.44157188-1.04084681 1.4193367-3.07522886 2.90175537a62.13538971 62.13538971 0 0 0-12.25360405 13.12097541h52.12118222c4.62072761 0 10.7081034-0.31540795 18.35675035-0.80429129a98.88042945 98.88042945 0 0 1 9.2887667-0.67812736c-7.75903845 9.17837518-16.44853027 19.35028564-26.17886885 30.563041h18.48291235c9.73033859 0 18.35675033-0.50465385 26.00539537-1.48241679-0.99353531 5.59849244-1.48241867 13.73602081-1.48241864 24.50720621v86.50066146c3.07522889 7.20707505-6.9074357 12.12744009-29.88491365 14.71378755-1.10392877-8.12175789-3.69027429-14.28798613-7.69595653-18.4671438 16.87433166 2.08169355 24.01832475 0 21.43197734-6.16622638v-22.11010657h-41.39730834v20.62768792c0 9.24145713 0.50465385 17.12665763 1.48241866 23.6556053h-19.16103972a142.56444586 142.56444586 0 0 0 1.67166265-23.6556053v-20.62768792h-37.58087204c-3.07522889 19.39759521-10.78695588 34.4267907-23.10363996 45.15066459-5.10961098-4.06876419-11.76472069-6.59202775-19.90224907-7.6959565 11.78049119-6.6551097 19.41336572-15.8334849 23.04055802-27.66128752 2.0343821-5.55118286 3.39063682-12.37976608 3.87952019-20.58037643 0.50465385-6.6551097 0.67812738-18.41983039 0.67812735-35.29416207 0-15.8334849-0.1734735-24.94877808-0.67812735-27.47204162-5.66157442 6.0873758-12.06435813 12.19052207-19.27143319 18.29366645-1.48241867-3.02791741-6.10314628-7.14399308-13.73602082-12.26937261 26.05270683-13.86218476 45.46607252-34.74219863 58.20855803-62.76620559z m55.25949311 35.97228942h-59.01284934c-6.10314628 6.6551097-11.21275724 11.76472069-15.34460152 15.34460341 4.13184617 0.97776482 11.02351135 1.48241867 20.76962044 1.48241679h39.72564568c4.13184617-4.57341613 8.75257378-10.17191047 13.86218474-16.8270202z m-26.79391427 30.5630429h-37.58087204v19.27143127h37.58087204z m57.40426675 0h-41.39730834v19.27143127h41.39730834z m-57.40426675 50.68607505v-18.46714186h-37.58087204v18.46714186z m57.40426675-18.46714186h-41.39730834v18.46714186h41.39730834z m110.34551268-99.55855683c1.52972825 0.55196343 4.05299369 1.29317275 7.69595649 2.28671002 10.21922197 2.52326546 15.09227555 4.30531967 14.5403121 5.34616642 0 0.56773393-0.50465385 1.05661728-1.48241865 1.48241674-5.10961098 2.6494275-9.98266457 7.27015511-14.54031212 13.92526676h49.70831212c8.68949182 0 16.14889282-0.55196343 22.25203912-1.6558922-6.6551097 10.83426735-15.8334849 22.85131402-27.48781401 36.16153533h26.00539535c11.21275724 0 18.10442245-0.56773393 20.75385185-1.67166267-0.55196343 6.10314628-0.86737136 12.25360404-0.86737328 18.48291237v27.47204163c0 12.88441995 0.50465385 20.2649685 1.48241867 22.23626858h-17.61554101l0.80429132-9.17837515h-94.19661985v33.70135186c-1.04084681 7.75903845 4.00568224 11.3389193 15.21843947 10.78695588h78.97818038c10.77118537 0 16.68508573-7.15976356 17.67862105-21.38466586 5.10961098 5.55118286 10.96042938 9.05221121 17.615541 10.59770998-5.10961098 16.38544831-14.03565826 24.33373268-26.79391615 23.9079313h-97.46109084c-15.21843949 0.42580139-22.11010468-3.94260026-20.56460593-13.12097542v-80.3975152c0-4.62072761-0.56773393-9.24145713-1.67166268-13.92526672v-2.94906493c-5.53541235 5.10961098-9.60417467 9.24145713-12.25360405 12.25360405l-14.54031211-11.57547667c24.0814067-14.30375664 42.99011855-35.24685058 56.74191176-62.7819761z m50.68607505 36.77658074h-56.11109397c-1.90821817 2.0343821-4.25800819 4.36840164-6.84435564 6.84435562a126.46286451 126.46286451 0 0 1-12.25360214 12.25360404h5.36193696c4.17915765 1.10392877 8.24792181 1.67166269 12.31668412 1.67166267h41.33422636c2.58634551-2.6494275 7.27015511-8.51601829 13.92526674-17.69439347 0.91468286-1.46664819 1.71897413-2.52326546 2.27093757-3.07522886z m30.5630429 63.57049688v-29.06485374h-40.52993699v29.06485374z m-56.74191176 0v-29.06485374h-37.45470809v29.06485374z" fill="#ffffff" p-id="673"></path></svg>